<?xml version="1.0" encoding="UTF-8" standalone="no"?>
<!-- Created with Inkscape (http://www.inkscape.org/) -->

<svg
   width="17.561035mm"
   height="19.783127mm"
   viewBox="0 0 17.561035 19.783127"
   version="1.1"
   id="svg5"
   xml:space="preserve"
   xmlns:inkscape="http://www.inkscape.org/namespaces/inkscape"
   xmlns:sodipodi="http://sodipodi.sourceforge.net/DTD/sodipodi-0.dtd"
   xmlns="http://www.w3.org/2000/svg"
   xmlns:svg="http://www.w3.org/2000/svg"><sodipodi:namedview
     id="namedview7"
     pagecolor="#ffffff"
     bordercolor="#000000"
     inkscape:showpageshadow="2"
     inkscape:pageopacity="0.0"
     inkscape:pagecheckerboard="0"
     inkscape:deskcolor="#d1d1d1"
     inkscape:document-units="mm"
     showgrid="false" /><defs
     id="defs2" /><g
     inkscape:label="Capa 1"
     inkscape:groupmode="layer"
     id="layer1"
     transform="translate(-88.532503,-111.76664)"><path
       style="fill:#0e55de;fill-opacity:1;stroke:#ffffff;stroke-width:0;stroke-linecap:round;stroke-dasharray:none;stroke-opacity:1;paint-order:stroke fill markers"
       d="m 89.181341,123.30776 c -0.577289,-0.70186 -0.488114,-2.04406 0.01296,-2.9728 2.776307,-3.11523 5.211725,-5.29088 8.093403,-8.01942 0.777822,-0.58137 1.68239,-0.15892 1.769171,-0.0343 1.693275,1.4295 4.592175,4.3209 6.293975,6.13718 0.63258,0.67513 0.588,1.57564 0.25619,2.20039 -0.51542,1.05429 -3.5041,4.01389 -4.92525,5.39801 -0.48529,-0.5158 -2.092355,-2.08678 -2.092355,-2.08678 0,0 3.279375,-3.18969 4.358905,-4.2759 -1.44917,-1.33022 -2.72297,-2.52208 -4.09902,-3.782 -0.267108,-0.26983 -0.476922,-0.38948 -0.84082,-0.14998 -1.630037,1.59227 -4.842502,4.89212 -5.959485,5.94833 -0.117726,0.0821 -0.132932,0.31101 0.07834,0.52564 0.994428,1.01021 4.783949,4.69751 5.597043,5.54361 0.589423,0.58358 0.642345,0.66874 1.212339,0.20285 0.693804,-0.56721 1.296103,-1.07143 1.791953,-1.46981 0.4211,0.39178 0.40926,0.37552 1.91111,1.90671 -1.78899,2.03087 -3.728833,4.11969 -6.244362,2.12242 -0.715219,-0.62963 -5.46695,-5.1952 -7.21411,-7.19417 z"
       id="path317"
       sodipodi:nodetypes="ccccscccccccsccccccc"
       inkscape:export-filename="PlatziMovies.svg"
       inkscape:export-xdpi="96"
       inkscape:export-ydpi="96" /></g></svg>
